<?xml version="1.0" encoding="utf-8"?>
<!-- Generator: Adobe Illustrator 26.3.1, SVG Export Plug-In . SVG Version: 6.00 Build 0)  -->
<svg version="1.1" id="Calque_1" xmlns="http://www.w3.org/2000/svg" xmlns:xlink="http://www.w3.org/1999/xlink" x="0px" y="0px"
	 viewBox="0 0 220 61.1" style="enable-background:new 0 0 220 61.1;" xml:space="preserve">
<style type="text/css">
	.st0{fill:none;}
	.st1{enable-background:new    ;}
	.st2{fill:none;stroke:#000000;stroke-width:2.5;stroke-miterlimit:10;}
	.st3{fill:#FDCB02;}
	.st4{fill:none;stroke:#41569B;stroke-width:2.5;stroke-miterlimit:10;}
</style>
<g>
	<path id="SVGID_x5F_1_x5F_" class="st0" d="M1.5,66.2c63-39.4,145-46.2,207.5-3.5"/>
	<g class="st1">
		<path d="M4.6,36.5c0.9-0.9,1.8-1.7,2.6-2.5s1.7-1.6,2.7-2.3c0.9-0.8,1.9-1.5,2.8-2.1c0.7-0.5,1.4-0.9,2.2-1.3
			c1.3-0.6,2.2-1,2.6-1.1c0.7-0.2,1.4-0.3,2-0.3c0.7,0,1.3,0.1,2,0.4c0.6,0.2,1.2,0.6,1.8,1.1c0.2,0.2,0.4,0.4,0.5,0.7
			c0.5,1,0.5,2.5,0.1,4.6s-0.9,3.9-1.5,5.5c-0.6,1.6-1.1,2.8-1.4,3.6l6.6,7.5l-2.4,4.3L10.5,39.4c0,0-0.1,0.1-0.1,0.4
			c-0.1,0.2-0.2,0.6-0.3,1c-0.1,0.4-0.2,0.6-0.2,0.7c0,0-0.2-0.1-0.5-0.5C9,40.7,8.5,40.3,8,39.7s-1.2-1.2-2-1.9
			C5.3,37.1,4.8,36.6,4.6,36.5z M15.3,36.1l3,3.5c0.3-0.8,0.6-2,1-3.4c0.4-1.4,0.4-2.3,0.2-2.8c-0.1-0.2-0.2-0.2-0.4-0.2
			c-0.5,0.1-0.9,0.3-1.3,0.4C16.7,34.3,15.8,35.1,15.3,36.1z"/>
	</g>
	<g class="st1">
		<path class="st2" d="M4.6,36.5c0.9-0.9,1.8-1.7,2.6-2.5s1.7-1.6,2.7-2.3c0.9-0.8,1.9-1.5,2.8-2.1c0.7-0.5,1.4-0.9,2.2-1.3
			c1.3-0.6,2.2-1,2.6-1.1c0.7-0.2,1.4-0.3,2-0.3c0.7,0,1.3,0.1,2,0.4c0.6,0.2,1.2,0.6,1.8,1.1c0.2,0.2,0.4,0.4,0.5,0.7
			c0.5,1,0.5,2.5,0.1,4.6s-0.9,3.9-1.5,5.5c-0.6,1.6-1.1,2.8-1.4,3.6l6.6,7.5l-2.4,4.3L10.5,39.4c0,0-0.1,0.1-0.1,0.4
			c-0.1,0.2-0.2,0.6-0.3,1c-0.1,0.4-0.2,0.6-0.2,0.7c0,0-0.2-0.1-0.5-0.5C9,40.7,8.5,40.3,8,39.7s-1.2-1.2-2-1.9
			C5.3,37.1,4.8,36.6,4.6,36.5z M15.3,36.1l3,3.5c0.3-0.8,0.6-2,1-3.4c0.4-1.4,0.4-2.3,0.2-2.8c-0.1-0.2-0.2-0.2-0.4-0.2
			c-0.5,0.1-0.9,0.3-1.3,0.4C16.7,34.3,15.8,35.1,15.3,36.1z"/>
	</g>
	<g class="st1">
		<path d="M38.4,30.1c0.8,0.1,1.5,0.4,2.2,0.8c0.7,0.4,1.2,1,1.7,1.7c0.5,0.7,0.9,1.4,1.2,2.3c0.3,0.7,0.5,1.4,0.6,2
			c0.1,0.7,0.2,1.3,0.2,1.9c0,0.6,0,1.1-0.1,1.6c-0.3,1.1-0.6,2.1-1,3c-0.4,0.9-0.9,1.7-1.5,2.3c-0.6,0.7-1.1,1.2-1.8,1.7
			c-0.6,0.5-1.3,0.8-1.9,1.1c-0.8,0.3-1.6,0.5-2.4,0.5c-0.8,0-1.6-0.1-2.2-0.3c-1.1-0.4-2.1-1.1-3.1-2.1c-0.9-1-1.6-2.2-2.2-3.5
			c-0.9-2.3-0.9-4.4-0.2-6.3c0.7-1.6,1.5-3,2.4-4c1-1.1,2.1-1.8,3.3-2.3c0.7-0.3,1.5-0.5,2.2-0.5C36.6,30,37.5,30,38.4,30.1z
			 M38.4,32.8c0.1,0.8,0,1.5-0.3,2.3c-0.3,0.8-0.7,1.2-1.2,1.4c-0.3,0.1-0.5,0.1-0.8,0.1c-0.4-0.1-0.7-0.5-0.9-1
			c-0.2-0.4-0.2-0.9-0.1-1.5c0.1-0.5,0.4-1,1-1.5c-0.6,0.2-1.2,0.6-1.7,1c-0.5,0.5-0.9,1-1.1,1.5c-0.3,0.5-0.4,1.1-0.5,1.6
			c-0.1,0.6,0,1.1,0.2,1.5c0.3,0.9,1,1.4,2,1.6c0.9,0.2,1.7,0.2,2.4-0.1c0.7-0.3,1.2-0.7,1.5-1.4c0.3-0.6,0.5-1.4,0.5-2.2
			c0-0.8-0.1-1.6-0.4-2.2C38.9,33.6,38.7,33.2,38.4,32.8z"/>
	</g>
	<g class="st1">
		<path class="st2" d="M38.4,30.1c0.8,0.1,1.5,0.4,2.2,0.8c0.7,0.4,1.2,1,1.7,1.7c0.5,0.7,0.9,1.4,1.2,2.3c0.3,0.7,0.5,1.4,0.6,2
			c0.1,0.7,0.2,1.3,0.2,1.9c0,0.6,0,1.1-0.1,1.6c-0.3,1.1-0.6,2.1-1,3c-0.4,0.9-0.9,1.7-1.5,2.3c-0.6,0.7-1.1,1.2-1.8,1.7
			c-0.6,0.5-1.3,0.8-1.9,1.1c-0.8,0.3-1.6,0.5-2.4,0.5c-0.8,0-1.6-0.1-2.2-0.3c-1.1-0.4-2.1-1.1-3.1-2.1c-0.9-1-1.6-2.2-2.2-3.5
			c-0.9-2.3-0.9-4.4-0.2-6.3c0.7-1.6,1.5-3,2.4-4c1-1.1,2.1-1.8,3.3-2.3c0.7-0.3,1.5-0.5,2.2-0.5C36.6,30,37.5,30,38.4,30.1z
			 M38.4,32.8c0.1,0.8,0,1.5-0.3,2.3c-0.3,0.8-0.7,1.2-1.2,1.4c-0.3,0.1-0.5,0.1-0.8,0.1c-0.4-0.1-0.7-0.5-0.9-1
			c-0.2-0.4-0.2-0.9-0.1-1.5c0.1-0.5,0.4-1,1-1.5c-0.6,0.2-1.2,0.6-1.7,1c-0.5,0.5-0.9,1-1.1,1.5c-0.3,0.5-0.4,1.1-0.5,1.6
			c-0.1,0.6,0,1.1,0.2,1.5c0.3,0.9,1,1.4,2,1.6c0.9,0.2,1.7,0.2,2.4-0.1c0.7-0.3,1.2-0.7,1.5-1.4c0.3-0.6,0.5-1.4,0.5-2.2
			c0-0.8-0.1-1.6-0.4-2.2C38.9,33.6,38.7,33.2,38.4,32.8z"/>
	</g>
	<g class="st1">
		<path d="M37.4,20.9l6.4-5.3L50,32l5.1-5.1l6.6-1l-6.3,8.8l9.5,3.5l2.1,5.7L53,39.1l2.5,7l-6.9,2.2l-8.9-24.8l-2,1.1L37.4,20.9z"/>
	</g>
	<g class="st1">
		<path class="st2" d="M37.4,20.9l6.4-5.3L50,32l5.1-5.1l6.6-1l-6.3,8.8l9.5,3.5l2.1,5.7L53,39.1l2.5,7l-6.9,2.2l-8.9-24.8l-2,1.1
			L37.4,20.9z"/>
	</g>
	<g class="st1">
		<path d="M59.3,17.1l6.9-6.1l4.5,4.5l-9.2,3.9L59.3,17.1z M74.1,28.7l4.5,3.5C78.5,33.1,78,34,77,34.9c-0.9,0.9-2.1,1.7-3.5,2.5
			s-2.8,1.2-4.3,1.6c-1.3,0.3-2.5,0.4-3.6,0.2c-1.1-0.1-2-0.5-2.7-1c-1.2-1-2-2.4-2.4-4.3c-0.3-1.5-0.4-3-0.2-4.5
			c0.2-1.6,0.6-2.7,1-3.4c0.6-0.8,1.2-1.6,2-2.2s1.5-1.2,2.4-1.6c0.9-0.4,1.8-0.7,2.7-1c1.3-0.3,2.5-0.3,3.7-0.2
			c1.2,0.2,2.3,0.5,3.3,1.1l-6,11.5c0.7-0.2,1.4-0.5,1.9-0.9c0.6-0.4,1.1-1,1.5-1.7C73.5,30.3,73.8,29.5,74.1,28.7z M69.2,26.1
			c-0.5-0.1-1.1-0.2-1.6,0c-0.5,0.1-1,0.3-1.5,0.7c-0.5,0.3-0.7,0.7-0.9,1c-0.4,0.9-0.6,1.9-0.3,2.8c0.1,0.3,0.2,0.7,0.3,1
			c0.1,0.3,0.4,0.7,0.6,1.2L69.2,26.1z"/>
	</g>
	<g class="st1">
		<path class="st2" d="M59.3,17.1l6.9-6.1l4.5,4.5l-9.2,3.9L59.3,17.1z M74.1,28.7l4.5,3.5C78.5,33.1,78,34,77,34.9
			c-0.9,0.9-2.1,1.7-3.5,2.5s-2.8,1.2-4.3,1.6c-1.3,0.3-2.5,0.4-3.6,0.2c-1.1-0.1-2-0.5-2.7-1c-1.2-1-2-2.4-2.4-4.3
			c-0.3-1.5-0.4-3-0.2-4.5c0.2-1.6,0.6-2.7,1-3.4c0.6-0.8,1.2-1.6,2-2.2s1.5-1.2,2.4-1.6c0.9-0.4,1.8-0.7,2.7-1
			c1.3-0.3,2.5-0.3,3.7-0.2c1.2,0.2,2.3,0.5,3.3,1.1l-6,11.5c0.7-0.2,1.4-0.5,1.9-0.9c0.6-0.4,1.1-1,1.5-1.7
			C73.5,30.3,73.8,29.5,74.1,28.7z M69.2,26.1c-0.5-0.1-1.1-0.2-1.6,0c-0.5,0.1-1,0.3-1.5,0.7c-0.5,0.3-0.7,0.7-0.9,1
			c-0.4,0.9-0.6,1.9-0.3,2.8c0.1,0.3,0.2,0.7,0.3,1c0.1,0.3,0.4,0.7,0.6,1.2L69.2,26.1z"/>
	</g>
	<g class="st1">
		<path d="M93.9,11.6l7.4-0.8l2.1,3.1l1.5-4.5l4.8-0.3l6.9,26.2l-8.8-0.5l-2-9l-1.6,3.4l-2.5-4.1l-0.4,7.7l-8.5,1L93.9,11.6z"/>
	</g>
	<g class="st1">
		<path class="st2" d="M93.9,11.6l7.4-0.8l2.1,3.1l1.5-4.5l4.8-0.3l6.9,26.2l-8.8-0.5l-2-9l-1.6,3.4l-2.5-4.1l-0.4,7.7l-8.5,1
			L93.9,11.6z"/>
	</g>
	<g class="st1">
		<path d="M125.5,16.4l6.5-2.5l-0.3,8.5c0.1,0.5,0.1,1.1,0,1.8c0,0.6-0.1,1-0.1,1.3l-0.3,9.3l-6.8,0l0-0.9c-1.1,0.4-2.3,0.6-3.4,0.5
			c-0.9,0-1.7-0.2-2.4-0.5c-0.7-0.3-1.4-0.7-1.9-1.2c-0.9-0.8-1.5-1.8-1.9-3.1c-0.4-1.3-0.6-2.6-0.5-4.1c0.1-2.4,0.9-4.4,2.4-5.8
			c1.3-1.2,2.6-2.1,3.9-2.7c1.3-0.6,2.6-0.8,4-0.8c0.4,0,0.7,0,0.8,0.1L125.5,16.4z M125.2,19.1c-0.6,0-1.1,0.2-1.7,0.4
			c-0.6,0.3-1,0.6-1.4,0.9c-0.4,0.4-0.7,0.8-1,1.2c-0.2,0.4-0.4,0.9-0.4,1.3c0,0.9,0.3,1.7,1.2,2.3c0.7,0.6,1.5,0.9,2.3,0.9
			c0.2,0,0.4,0,0.6,0L125,23c-0.3,0-0.5-0.1-0.7-0.2c-0.3-0.3-0.4-0.7-0.4-1.4C124,20.3,124.4,19.6,125.2,19.1z"/>
	</g>
	<g class="st1">
		<path class="st2" d="M125.5,16.4l6.5-2.5l-0.3,8.5c0.1,0.5,0.1,1.1,0,1.8c0,0.6-0.1,1-0.1,1.3l-0.3,9.3l-6.8,0l0-0.9
			c-1.1,0.4-2.3,0.6-3.4,0.5c-0.9,0-1.7-0.2-2.4-0.5c-0.7-0.3-1.4-0.7-1.9-1.2c-0.9-0.8-1.5-1.8-1.9-3.1c-0.4-1.3-0.6-2.6-0.5-4.1
			c0.1-2.4,0.9-4.4,2.4-5.8c1.3-1.2,2.6-2.1,3.9-2.7c1.3-0.6,2.6-0.8,4-0.8c0.4,0,0.7,0,0.8,0.1L125.5,16.4z M125.2,19.1
			c-0.6,0-1.1,0.2-1.7,0.4c-0.6,0.3-1,0.6-1.4,0.9c-0.4,0.4-0.7,0.8-1,1.2c-0.2,0.4-0.4,0.9-0.4,1.3c0,0.9,0.3,1.7,1.2,2.3
			c0.7,0.6,1.5,0.9,2.3,0.9c0.2,0,0.4,0,0.6,0L125,23c-0.3,0-0.5-0.1-0.7-0.2c-0.3-0.3-0.4-0.7-0.4-1.4
			C124,20.3,124.4,19.6,125.2,19.1z"/>
	</g>
	<g class="st1">
		<path d="M139,17.8c1.2-0.2,2.2-0.3,3-0.4c0.8-0.1,1.6-0.1,2.3,0c1,0.1,1.8,0.5,2.5,1c0.8,0.6,1.6,1.7,2.5,3
			c0.8,1.4,1.3,2.6,1.4,3.7c0.2,2.2,0.2,4.1,0,5.7c-0.1,0.8-0.3,1.7-0.6,2.6c-0.2,0.9-0.6,2.1-1,3.5l-6.3-0.6
			c0.1-0.5,0.2-1.2,0.4-2.2c0.6-3.9,0.5-7.3-0.1-10.2c-0.3-1.1-0.6-1.7-1-1.7c-0.5-0.1-1.2,0.6-2,1.9c-0.2,0.3-0.4,0.7-0.5,1.1
			c-0.2,0.4-0.3,0.9-0.4,1.5c-0.1,0.6-0.2,1.2-0.4,2c-0.2,1.5-0.4,3.5-0.6,5.9l-7.5-0.2c0-0.9,0-1.8,0.1-2.7c0-0.9,0.1-1.7,0.1-2.5
			c0.1-0.8,0.1-1.6,0.3-2.4c0.1-0.4,0.2-0.9,0.3-1.6l1-8.8l6,0.1L139,17.8z"/>
	</g>
	<g class="st1">
		<path class="st2" d="M139,17.8c1.2-0.2,2.2-0.3,3-0.4c0.8-0.1,1.6-0.1,2.3,0c1,0.1,1.8,0.5,2.5,1c0.8,0.6,1.6,1.7,2.5,3
			c0.8,1.4,1.3,2.6,1.4,3.7c0.2,2.2,0.2,4.1,0,5.7c-0.1,0.8-0.3,1.7-0.6,2.6c-0.2,0.9-0.6,2.1-1,3.5l-6.3-0.6
			c0.1-0.5,0.2-1.2,0.4-2.2c0.6-3.9,0.5-7.3-0.1-10.2c-0.3-1.1-0.6-1.7-1-1.7c-0.5-0.1-1.2,0.6-2,1.9c-0.2,0.3-0.4,0.7-0.5,1.1
			c-0.2,0.4-0.3,0.9-0.4,1.5c-0.1,0.6-0.2,1.2-0.4,2c-0.2,1.5-0.4,3.5-0.6,5.9l-7.5-0.2c0-0.9,0-1.8,0.1-2.7c0-0.9,0.1-1.7,0.1-2.5
			c0.1-0.8,0.1-1.6,0.3-2.4c0.1-0.4,0.2-0.9,0.3-1.6l1-8.8l6,0.1L139,17.8z"/>
	</g>
	<g class="st1">
		<path d="M162.4,22.4l6.8-1.2l-1.9,8.2c0,0.5-0.2,1.1-0.3,1.8c-0.1,0.6-0.3,1-0.4,1.2l-2.1,9l-6.7-1.3l0.2-0.9
			c-1.2,0.2-2.3,0.1-3.4-0.2c-0.8-0.2-1.6-0.5-2.3-1c-0.7-0.4-1.2-0.9-1.7-1.5c-0.7-0.9-1.1-2.1-1.3-3.4c-0.2-1.3-0.1-2.7,0.2-4.1
			c0.6-2.4,1.7-4.1,3.5-5.2c1.5-0.9,2.9-1.6,4.3-1.9s2.8-0.3,4.1,0c0.4,0.1,0.6,0.2,0.8,0.2L162.4,22.4z M161.7,25
			c-0.6-0.1-1.1,0-1.7,0.1c-0.6,0.1-1.1,0.4-1.6,0.6c-0.5,0.3-0.9,0.6-1.2,1c-0.3,0.4-0.5,0.8-0.6,1.2c-0.2,0.9,0,1.7,0.7,2.5
			c0.6,0.7,1.3,1.1,2.1,1.3c0.1,0,0.4,0.1,0.6,0.1l0.8-3.1c-0.3-0.1-0.5-0.2-0.7-0.4c-0.2-0.3-0.3-0.8-0.1-1.5
			C160.2,25.9,160.8,25.3,161.7,25z"/>
	</g>
	<g class="st1">
		<path class="st2" d="M162.4,22.4l6.8-1.2l-1.9,8.2c0,0.5-0.2,1.1-0.3,1.8c-0.1,0.6-0.3,1-0.4,1.2l-2.1,9l-6.7-1.3l0.2-0.9
			c-1.2,0.2-2.3,0.1-3.4-0.2c-0.8-0.2-1.6-0.5-2.3-1c-0.7-0.4-1.2-0.9-1.7-1.5c-0.7-0.9-1.1-2.1-1.3-3.4c-0.2-1.3-0.1-2.7,0.2-4.1
			c0.6-2.4,1.7-4.1,3.5-5.2c1.5-0.9,2.9-1.6,4.3-1.9s2.8-0.3,4.1,0c0.4,0.1,0.6,0.2,0.8,0.2L162.4,22.4z M161.7,25
			c-0.6-0.1-1.1,0-1.7,0.1c-0.6,0.1-1.1,0.4-1.6,0.6c-0.5,0.3-0.9,0.6-1.2,1c-0.3,0.4-0.5,0.8-0.6,1.2c-0.2,0.9,0,1.7,0.7,2.5
			c0.6,0.7,1.3,1.1,2.1,1.3c0.1,0,0.4,0.1,0.6,0.1l0.8-3.1c-0.3-0.1-0.5-0.2-0.7-0.4c-0.2-0.3-0.3-0.8-0.1-1.5
			C160.2,25.9,160.8,25.3,161.7,25z"/>
	</g>
	<g class="st1">
		<path d="M179.1,46l-0.6,1.6c-0.6,1.8-1.3,3.5-2,5c-0.7,1.5-1.5,2.5-2.2,3c-1.1,0.7-2.3,1.1-3.7,1.4c-1.4,0.3-2.8,0.1-4.3-0.4
			c-1-0.3-1.9-0.9-3-1.7c-1-0.8-1.7-1.6-2.1-2.4c-0.4-0.8-0.6-1.6-0.7-2.4c0-0.8,0.1-1.6,0.4-2.4c0.4-1,0.8-1.9,1.5-2.7
			c0.6-0.8,1.1-1.3,1.4-1.6l3.6,4.7c-0.1,0.2-0.2,0.4-0.2,0.5c-0.2,0.6-0.2,1.1,0.1,1.6c0.3,0.5,0.7,0.8,1.3,1c0.5,0.2,1,0.2,1.5,0
			c0.5-0.2,0.9-0.5,1.2-1c0.3-0.6,0.7-1.4,1-2.4c0.4-1.2,0.8-2.5,1.1-3.9c-1.4,0.2-2.7,0-4-0.4c-0.8-0.3-1.5-0.7-2.2-1.2
			c-0.6-0.5-1.1-1.1-1.5-1.7c-0.6-1-0.9-2.2-1-3.5c-0.1-1.4,0.1-2.7,0.6-4c0.8-2.3,2.1-3.9,3.9-4.9c3.1-1.6,6-2,8.5-1.1
			c0.8,0.3,1.5,0.7,2.1,1.1l5.1-0.6L179.1,46z M176.5,36.7l1-3.1c-0.6-0.2-1-0.4-1.1-0.7c-0.1-0.3-0.2-0.6,0-0.9
			c0.1-0.4,0.4-0.8,0.6-1.1c0.3-0.4,0.5-0.6,0.7-0.8c-0.8-0.1-1.5-0.1-2.2,0.1c-0.7,0.2-1.4,0.5-1.9,1c-0.5,0.4-0.9,0.9-1.1,1.5
			c-0.3,0.9-0.1,1.7,0.5,2.5c0.4,0.5,1,0.9,1.8,1.2C175.4,36.5,175.9,36.6,176.5,36.7z"/>
	</g>
	<g class="st1">
		<path class="st2" d="M179.1,46l-0.6,1.6c-0.6,1.8-1.3,3.5-2,5c-0.7,1.5-1.5,2.5-2.2,3c-1.1,0.7-2.3,1.1-3.7,1.4
			c-1.4,0.3-2.8,0.1-4.3-0.4c-1-0.3-1.9-0.9-3-1.7c-1-0.8-1.7-1.6-2.1-2.4c-0.4-0.8-0.6-1.6-0.7-2.4c0-0.8,0.1-1.6,0.4-2.4
			c0.4-1,0.8-1.9,1.5-2.7c0.6-0.8,1.1-1.3,1.4-1.6l3.6,4.7c-0.1,0.2-0.2,0.4-0.2,0.5c-0.2,0.6-0.2,1.1,0.1,1.6
			c0.3,0.5,0.7,0.8,1.3,1c0.5,0.2,1,0.2,1.5,0c0.5-0.2,0.9-0.5,1.2-1c0.3-0.6,0.7-1.4,1-2.4c0.4-1.2,0.8-2.5,1.1-3.9
			c-1.4,0.2-2.7,0-4-0.4c-0.8-0.3-1.5-0.7-2.2-1.2c-0.6-0.5-1.1-1.1-1.5-1.7c-0.6-1-0.9-2.2-1-3.5c-0.1-1.4,0.1-2.7,0.6-4
			c0.8-2.3,2.1-3.9,3.9-4.9c3.1-1.6,6-2,8.5-1.1c0.8,0.3,1.5,0.7,2.1,1.1l5.1-0.6L179.1,46z M176.5,36.7l1-3.1
			c-0.6-0.2-1-0.4-1.1-0.7c-0.1-0.3-0.2-0.6,0-0.9c0.1-0.4,0.4-0.8,0.6-1.1c0.3-0.4,0.5-0.6,0.7-0.8c-0.8-0.1-1.5-0.1-2.2,0.1
			c-0.7,0.2-1.4,0.5-1.9,1c-0.5,0.4-0.9,0.9-1.1,1.5c-0.3,0.9-0.1,1.7,0.5,2.5c0.4,0.5,1,0.9,1.8,1.2
			C175.4,36.5,175.9,36.6,176.5,36.7z"/>
	</g>
	<g class="st1">
		<path d="M194.2,44l1.5,5.5c-0.6,0.6-1.6,1.1-2.9,1.2c-1.3,0.2-2.7,0.1-4.2-0.1c-1.5-0.3-3-0.7-4.4-1.3c-1.2-0.6-2.2-1.2-3-2
			c-0.8-0.8-1.3-1.6-1.5-2.5c-0.4-1.5-0.2-3.2,0.6-4.9c0.6-1.4,1.5-2.6,2.6-3.7c1.1-1.1,2.1-1.8,2.9-2.1c1-0.3,1.9-0.5,2.9-0.6
			c1-0.1,1.9,0,2.9,0.2c0.9,0.2,1.9,0.5,2.7,0.9c1.2,0.5,2.2,1.2,3.1,2.1c0.9,0.9,1.6,1.8,2,2.9l-11.7,5.5c0.7,0.3,1.4,0.5,2.1,0.5
			c0.7,0,1.5-0.1,2.2-0.4C192.7,45,193.4,44.6,194.2,44z M191.8,39.1c-0.3-0.4-0.8-0.8-1.2-1c-0.5-0.2-1-0.3-1.6-0.4
			c-0.6,0-1,0.1-1.3,0.3c-0.9,0.5-1.6,1.1-2,2c-0.1,0.3-0.3,0.6-0.3,1c-0.1,0.3-0.1,0.8-0.2,1.4L191.8,39.1z"/>
	</g>
	<g class="st1">
		<path class="st2" d="M194.2,44l1.5,5.5c-0.6,0.6-1.6,1.1-2.9,1.2c-1.3,0.2-2.7,0.1-4.2-0.1c-1.5-0.3-3-0.7-4.4-1.3
			c-1.2-0.6-2.2-1.2-3-2c-0.8-0.8-1.3-1.6-1.5-2.5c-0.4-1.5-0.2-3.2,0.6-4.9c0.6-1.4,1.5-2.6,2.6-3.7c1.1-1.1,2.1-1.8,2.9-2.1
			c1-0.3,1.9-0.5,2.9-0.6c1-0.1,1.9,0,2.9,0.2c0.9,0.2,1.9,0.5,2.7,0.9c1.2,0.5,2.2,1.2,3.1,2.1c0.9,0.9,1.6,1.8,2,2.9l-11.7,5.5
			c0.7,0.3,1.4,0.5,2.1,0.5c0.7,0,1.5-0.1,2.2-0.4C192.7,45,193.4,44.6,194.2,44z M191.8,39.1c-0.3-0.4-0.8-0.8-1.2-1
			c-0.5-0.2-1-0.3-1.6-0.4c-0.6,0-1,0.1-1.3,0.3c-0.9,0.5-1.6,1.1-2,2c-0.1,0.3-0.3,0.6-0.3,1c-0.1,0.3-0.1,0.8-0.2,1.4L191.8,39.1z
			"/>
	</g>
	<g class="st1">
		<path d="M215,48.6l-6.4,0.3c0.1-0.7,0.1-1.4,0-2s-0.4-1.1-0.8-1.3c-0.6-0.3-1.3-0.2-2.2,0.5c-0.9,0.7-2,2.1-3.2,4.2
			c-0.9,1.5-1.9,3.4-2.9,5.5l-6.8-3c1.2-2.9,2.4-5.4,3.7-7.5c0.2-0.3,0.5-0.8,0.9-1.4l4.2-7.8l5.5,2.4l0.2,1.3
			c0.7,0.1,1.4,0.3,2,0.5c0.6,0.2,1.2,0.3,1.7,0.5c0.5,0.2,1,0.4,1.4,0.6c0.9,0.5,1.5,1.1,1.9,1.9c0.6,0.9,0.9,1.8,1.1,2.6
			C215.3,46.6,215.3,47.5,215,48.6z"/>
	</g>
	<g class="st1">
		<path class="st2" d="M215,48.6l-6.4,0.3c0.1-0.7,0.1-1.4,0-2s-0.4-1.1-0.8-1.3c-0.6-0.3-1.3-0.2-2.2,0.5c-0.9,0.7-2,2.1-3.2,4.2
			c-0.9,1.5-1.9,3.4-2.9,5.5l-6.8-3c1.2-2.9,2.4-5.4,3.7-7.5c0.2-0.3,0.5-0.8,0.9-1.4l4.2-7.8l5.5,2.4l0.2,1.3
			c0.7,0.1,1.4,0.3,2,0.5c0.6,0.2,1.2,0.3,1.7,0.5c0.5,0.2,1,0.4,1.4,0.6c0.9,0.5,1.5,1.1,1.9,1.9c0.6,0.9,0.9,1.8,1.1,2.6
			C215.3,46.6,215.3,47.5,215,48.6z"/>
	</g>
</g>
<g>
	<path id="SVGID_x5F_00000083091106017166561910000016971367277993045915_x5F_" class="st0" d="M3.9,62.9
		c63-39.4,145-46.2,207.5-3.5"/>
	<g class="st1">
		<path class="st3" d="M7,33.2c0.9-0.9,1.8-1.7,2.6-2.5c0.8-0.8,1.7-1.6,2.7-2.3c0.9-0.8,1.9-1.5,2.8-2.1c0.7-0.5,1.4-0.9,2.2-1.3
			c1.3-0.6,2.2-1,2.6-1.1c0.7-0.2,1.4-0.3,2-0.3c0.7,0,1.3,0.1,2,0.4c0.6,0.2,1.2,0.6,1.8,1.1c0.2,0.2,0.4,0.4,0.5,0.7
			c0.5,1,0.5,2.5,0.1,4.6s-0.9,3.9-1.5,5.5c-0.6,1.6-1.1,2.8-1.4,3.6l6.6,7.5l-2.4,4.3L12.9,36.2c0,0-0.1,0.1-0.1,0.4
			c-0.1,0.2-0.2,0.6-0.3,1c-0.1,0.4-0.2,0.6-0.2,0.7c0,0-0.2-0.1-0.5-0.5c-0.3-0.3-0.8-0.8-1.4-1.3s-1.2-1.2-2-1.9
			C7.7,33.8,7.2,33.4,7,33.2z M17.6,32.8l3,3.5c0.3-0.8,0.6-2,1-3.4c0.4-1.4,0.4-2.3,0.2-2.8C21.8,30,21.7,30,21.5,30
			c-0.5,0.1-0.9,0.3-1.3,0.4C19,31,18.2,31.8,17.6,32.8z"/>
	</g>
	<g class="st1">
		<path class="st4" d="M7,33.2c0.9-0.9,1.8-1.7,2.6-2.5c0.8-0.8,1.7-1.6,2.7-2.3c0.9-0.8,1.9-1.5,2.8-2.1c0.7-0.5,1.4-0.9,2.2-1.3
			c1.3-0.6,2.2-1,2.6-1.1c0.7-0.2,1.4-0.3,2-0.3c0.7,0,1.3,0.1,2,0.4c0.6,0.2,1.2,0.6,1.8,1.1c0.2,0.2,0.4,0.4,0.5,0.7
			c0.5,1,0.5,2.5,0.1,4.6s-0.9,3.9-1.5,5.5c-0.6,1.6-1.1,2.8-1.4,3.6l6.6,7.5l-2.4,4.3L12.9,36.2c0,0-0.1,0.1-0.1,0.4
			c-0.1,0.2-0.2,0.6-0.3,1c-0.1,0.4-0.2,0.6-0.2,0.7c0,0-0.2-0.1-0.5-0.5c-0.3-0.3-0.8-0.8-1.4-1.3s-1.2-1.2-2-1.9
			C7.7,33.8,7.2,33.4,7,33.2z M17.6,32.8l3,3.5c0.3-0.8,0.6-2,1-3.4c0.4-1.4,0.4-2.3,0.2-2.8C21.8,30,21.7,30,21.5,30
			c-0.5,0.1-0.9,0.3-1.3,0.4C19,31,18.2,31.8,17.6,32.8z"/>
	</g>
	<g class="st1">
		<path class="st3" d="M40.7,26.9c0.8,0.1,1.5,0.4,2.2,0.8c0.7,0.4,1.2,1,1.7,1.7c0.5,0.7,0.9,1.4,1.2,2.3c0.3,0.7,0.5,1.4,0.6,2
			c0.1,0.7,0.2,1.3,0.2,1.9c0,0.6,0,1.1-0.1,1.6c-0.3,1.1-0.6,2.1-1,3c-0.4,0.9-0.9,1.7-1.5,2.3c-0.6,0.7-1.1,1.2-1.8,1.7
			c-0.6,0.5-1.3,0.8-1.9,1.1c-0.8,0.3-1.6,0.5-2.4,0.5c-0.8,0-1.6-0.1-2.2-0.3c-1.1-0.4-2.1-1.1-3.1-2.1c-0.9-1-1.6-2.2-2.2-3.5
			c-0.9-2.3-0.9-4.4-0.2-6.3c0.7-1.6,1.5-3,2.4-4c1-1.1,2.1-1.8,3.3-2.3c0.7-0.3,1.5-0.5,2.2-0.5C39,26.8,39.8,26.8,40.7,26.9z
			 M40.8,29.6c0.1,0.8,0,1.5-0.3,2.3c-0.3,0.8-0.7,1.2-1.2,1.4c-0.3,0.1-0.5,0.1-0.8,0.1c-0.4-0.1-0.7-0.5-0.9-1
			c-0.2-0.4-0.2-0.9-0.1-1.5c0.1-0.5,0.4-1,1-1.5c-0.6,0.2-1.2,0.6-1.7,1c-0.5,0.5-0.9,1-1.1,1.5c-0.3,0.5-0.4,1.1-0.5,1.6
			c-0.1,0.6,0,1.1,0.2,1.5c0.3,0.9,1,1.4,2,1.6c0.9,0.2,1.7,0.2,2.4-0.1c0.7-0.3,1.2-0.7,1.5-1.4c0.3-0.6,0.5-1.4,0.5-2.2
			c0-0.8-0.1-1.6-0.4-2.2C41.3,30.3,41.1,29.9,40.8,29.6z"/>
	</g>
	<g class="st1">
		<path class="st4" d="M40.7,26.9c0.8,0.1,1.5,0.4,2.2,0.8c0.7,0.4,1.2,1,1.7,1.7c0.5,0.7,0.9,1.4,1.2,2.3c0.3,0.7,0.5,1.4,0.6,2
			c0.1,0.7,0.2,1.3,0.2,1.9c0,0.6,0,1.1-0.1,1.6c-0.3,1.1-0.6,2.1-1,3c-0.4,0.9-0.9,1.7-1.5,2.3c-0.6,0.7-1.1,1.2-1.8,1.7
			c-0.6,0.5-1.3,0.8-1.9,1.1c-0.8,0.3-1.6,0.5-2.4,0.5c-0.8,0-1.6-0.1-2.2-0.3c-1.1-0.4-2.1-1.1-3.1-2.1c-0.9-1-1.6-2.2-2.2-3.5
			c-0.9-2.3-0.9-4.4-0.2-6.3c0.7-1.6,1.5-3,2.4-4c1-1.1,2.1-1.8,3.3-2.3c0.7-0.3,1.5-0.5,2.2-0.5C39,26.8,39.8,26.8,40.7,26.9z
			 M40.8,29.6c0.1,0.8,0,1.5-0.3,2.3c-0.3,0.8-0.7,1.2-1.2,1.4c-0.3,0.1-0.5,0.1-0.8,0.1c-0.4-0.1-0.7-0.5-0.9-1
			c-0.2-0.4-0.2-0.9-0.1-1.5c0.1-0.5,0.4-1,1-1.5c-0.6,0.2-1.2,0.6-1.7,1c-0.5,0.5-0.9,1-1.1,1.5c-0.3,0.5-0.4,1.1-0.5,1.6
			c-0.1,0.6,0,1.1,0.2,1.5c0.3,0.9,1,1.4,2,1.6c0.9,0.2,1.7,0.2,2.4-0.1c0.7-0.3,1.2-0.7,1.5-1.4c0.3-0.6,0.5-1.4,0.5-2.2
			c0-0.8-0.1-1.6-0.4-2.2C41.3,30.3,41.1,29.9,40.8,29.6z"/>
	</g>
	<g class="st1">
		<path class="st3" d="M39.8,17.7l6.4-5.3l6.1,16.4l5.1-5.1l6.6-1l-6.3,8.8l9.5,3.5l2.1,5.7l-13.9-4.7l2.5,7L51,45.1l-8.9-24.8
			l-2,1.1L39.8,17.7z"/>
	</g>
	<g class="st1">
		<path class="st4" d="M39.8,17.7l6.4-5.3l6.1,16.4l5.1-5.1l6.6-1l-6.3,8.8l9.5,3.5l2.1,5.7l-13.9-4.7l2.5,7L51,45.1l-8.9-24.8
			l-2,1.1L39.8,17.7z"/>
	</g>
	<g class="st1">
		<path class="st3" d="M61.7,13.9l6.9-6.1l4.5,4.5l-9.2,3.9L61.7,13.9z M76.4,25.4l4.5,3.5c-0.1,0.9-0.6,1.8-1.5,2.7
			c-0.9,0.9-2.1,1.7-3.5,2.5s-2.8,1.2-4.3,1.6c-1.3,0.3-2.5,0.4-3.6,0.2c-1.1-0.1-2-0.5-2.7-1c-1.2-1-2-2.4-2.4-4.3
			c-0.3-1.5-0.4-3-0.2-4.5c0.2-1.6,0.6-2.7,1-3.4c0.6-0.8,1.2-1.6,2-2.2s1.5-1.2,2.4-1.6c0.9-0.4,1.8-0.7,2.7-1
			c1.3-0.3,2.5-0.3,3.7-0.2c1.2,0.2,2.3,0.5,3.3,1.1l-6,11.5c0.7-0.2,1.4-0.5,1.9-0.9s1.1-1,1.5-1.7C75.8,27,76.2,26.3,76.4,25.4z
			 M71.6,22.9c-0.5-0.1-1.1-0.2-1.6,0c-0.5,0.1-1,0.3-1.5,0.7s-0.7,0.7-0.9,1c-0.4,0.9-0.6,1.9-0.3,2.8c0.1,0.3,0.2,0.7,0.3,1
			c0.1,0.3,0.4,0.7,0.6,1.2L71.6,22.9z"/>
	</g>
	<g class="st1">
		<path class="st4" d="M61.7,13.9l6.9-6.1l4.5,4.5l-9.2,3.9L61.7,13.9z M76.4,25.4l4.5,3.5c-0.1,0.9-0.6,1.8-1.5,2.7
			c-0.9,0.9-2.1,1.7-3.5,2.5s-2.8,1.2-4.3,1.6c-1.3,0.3-2.5,0.4-3.6,0.2c-1.1-0.1-2-0.5-2.7-1c-1.2-1-2-2.4-2.4-4.3
			c-0.3-1.5-0.4-3-0.2-4.5c0.2-1.6,0.6-2.7,1-3.4c0.6-0.8,1.2-1.6,2-2.2s1.5-1.2,2.4-1.6c0.9-0.4,1.8-0.7,2.7-1
			c1.3-0.3,2.5-0.3,3.7-0.2c1.2,0.2,2.3,0.5,3.3,1.1l-6,11.5c0.7-0.2,1.4-0.5,1.9-0.9s1.1-1,1.5-1.7C75.8,27,76.2,26.3,76.4,25.4z
			 M71.6,22.9c-0.5-0.1-1.1-0.2-1.6,0c-0.5,0.1-1,0.3-1.5,0.7s-0.7,0.7-0.9,1c-0.4,0.9-0.6,1.9-0.3,2.8c0.1,0.3,0.2,0.7,0.3,1
			c0.1,0.3,0.4,0.7,0.6,1.2L71.6,22.9z"/>
	</g>
	<g class="st1">
		<path class="st3" d="M96.3,8.3l7.4-0.8l2.1,3.1l1.5-4.5l4.8-0.3l6.9,26.2l-8.8-0.5l-2-9l-1.6,3.4l-2.5-4.1l-0.4,7.7l-8.5,1
			L96.3,8.3z"/>
	</g>
	<g class="st1">
		<path class="st4" d="M96.3,8.3l7.4-0.8l2.1,3.1l1.5-4.5l4.8-0.3l6.9,26.2l-8.8-0.5l-2-9l-1.6,3.4l-2.5-4.1l-0.4,7.7l-8.5,1
			L96.3,8.3z"/>
	</g>
	<g class="st1">
		<path class="st3" d="M127.9,13.2l6.5-2.5l-0.3,8.5c0.1,0.5,0.1,1.1,0,1.8c0,0.6-0.1,1-0.1,1.3l-0.3,9.3l-6.8,0l0-0.9
			c-1.1,0.4-2.3,0.6-3.4,0.5c-0.9,0-1.7-0.2-2.4-0.5c-0.7-0.3-1.4-0.7-1.9-1.2c-0.9-0.8-1.5-1.8-1.9-3.1c-0.4-1.3-0.6-2.6-0.5-4.1
			c0.1-2.4,0.9-4.3,2.4-5.8c1.3-1.2,2.6-2.1,3.9-2.7c1.3-0.6,2.6-0.8,4-0.8c0.4,0,0.7,0,0.8,0.1L127.9,13.2z M127.6,15.9
			c-0.6,0-1.1,0.2-1.7,0.4c-0.6,0.3-1,0.6-1.4,0.9c-0.4,0.4-0.7,0.8-1,1.2c-0.2,0.4-0.4,0.9-0.4,1.3c0,0.9,0.3,1.7,1.2,2.3
			c0.7,0.6,1.5,0.9,2.3,0.9c0.2,0,0.4,0,0.6,0l0.2-3.2c-0.3,0-0.5-0.1-0.7-0.2c-0.3-0.3-0.4-0.7-0.4-1.4
			C126.4,17.1,126.8,16.4,127.6,15.9z"/>
	</g>
	<g class="st1">
		<path class="st4" d="M127.9,13.2l6.5-2.5l-0.3,8.5c0.1,0.5,0.1,1.1,0,1.8c0,0.6-0.1,1-0.1,1.3l-0.3,9.3l-6.8,0l0-0.9
			c-1.1,0.4-2.3,0.6-3.4,0.5c-0.9,0-1.7-0.2-2.4-0.5c-0.7-0.3-1.4-0.7-1.9-1.2c-0.9-0.8-1.5-1.8-1.9-3.1c-0.4-1.3-0.6-2.6-0.5-4.1
			c0.1-2.4,0.9-4.3,2.4-5.8c1.3-1.2,2.6-2.1,3.9-2.7c1.3-0.6,2.6-0.8,4-0.8c0.4,0,0.7,0,0.8,0.1L127.9,13.2z M127.6,15.9
			c-0.6,0-1.1,0.2-1.7,0.4c-0.6,0.3-1,0.6-1.4,0.9c-0.4,0.4-0.7,0.8-1,1.2c-0.2,0.4-0.4,0.9-0.4,1.3c0,0.9,0.3,1.7,1.2,2.3
			c0.7,0.6,1.5,0.9,2.3,0.9c0.2,0,0.4,0,0.6,0l0.2-3.2c-0.3,0-0.5-0.1-0.7-0.2c-0.3-0.3-0.4-0.7-0.4-1.4
			C126.4,17.1,126.8,16.4,127.6,15.9z"/>
	</g>
	<g class="st1">
		<path class="st3" d="M141.3,14.6c1.2-0.2,2.2-0.3,3-0.4c0.8-0.1,1.6-0.1,2.3,0c1,0.1,1.8,0.5,2.5,1c0.8,0.6,1.6,1.7,2.5,3
			c0.8,1.4,1.3,2.6,1.4,3.7c0.2,2.2,0.2,4.1,0,5.7c-0.1,0.8-0.3,1.7-0.6,2.6s-0.6,2.1-1,3.5l-6.3-0.6c0.1-0.5,0.2-1.2,0.4-2.2
			c0.6-3.9,0.5-7.3-0.1-10.2c-0.3-1.1-0.6-1.7-1-1.7c-0.5-0.1-1.2,0.6-2,1.9c-0.2,0.3-0.4,0.7-0.5,1.1c-0.2,0.4-0.3,0.9-0.4,1.5
			c-0.1,0.6-0.2,1.2-0.4,2c-0.2,1.5-0.4,3.5-0.6,5.9l-7.5-0.2c0-0.9,0-1.8,0.1-2.7c0-0.9,0.1-1.7,0.1-2.5c0.1-0.8,0.1-1.6,0.3-2.4
			c0.1-0.4,0.2-0.9,0.3-1.6l1-8.8l6,0.1L141.3,14.6z"/>
	</g>
	<g class="st1">
		<path class="st4" d="M141.3,14.6c1.2-0.2,2.2-0.3,3-0.4c0.8-0.1,1.6-0.1,2.3,0c1,0.1,1.8,0.5,2.5,1c0.8,0.6,1.6,1.7,2.5,3
			c0.8,1.4,1.3,2.6,1.4,3.7c0.2,2.2,0.2,4.1,0,5.7c-0.1,0.8-0.3,1.7-0.6,2.6s-0.6,2.1-1,3.5l-6.3-0.6c0.1-0.5,0.2-1.2,0.4-2.2
			c0.6-3.9,0.5-7.3-0.1-10.2c-0.3-1.1-0.6-1.7-1-1.7c-0.5-0.1-1.2,0.6-2,1.9c-0.2,0.3-0.4,0.7-0.5,1.1c-0.2,0.4-0.3,0.9-0.4,1.5
			c-0.1,0.6-0.2,1.2-0.4,2c-0.2,1.5-0.4,3.5-0.6,5.9l-7.5-0.2c0-0.9,0-1.8,0.1-2.7c0-0.9,0.1-1.7,0.1-2.5c0.1-0.8,0.1-1.6,0.3-2.4
			c0.1-0.4,0.2-0.9,0.3-1.6l1-8.8l6,0.1L141.3,14.6z"/>
	</g>
	<g class="st1">
		<path class="st3" d="M164.8,19.2l6.8-1.2l-1.9,8.2c0,0.5-0.2,1.1-0.3,1.8c-0.1,0.6-0.3,1-0.4,1.2l-2.1,9l-6.7-1.3l0.2-0.9
			c-1.2,0.2-2.3,0.1-3.4-0.2c-0.8-0.2-1.6-0.5-2.3-1c-0.7-0.4-1.2-0.9-1.7-1.5c-0.7-0.9-1.1-2.1-1.3-3.4c-0.2-1.4-0.1-2.7,0.2-4.1
			c0.6-2.4,1.7-4.1,3.5-5.2c1.5-0.9,2.9-1.6,4.3-1.9s2.8-0.3,4.1,0c0.4,0.1,0.6,0.2,0.8,0.2L164.8,19.2z M164,21.8
			c-0.6-0.1-1.1,0-1.7,0.1c-0.6,0.1-1.1,0.4-1.6,0.6c-0.5,0.3-0.9,0.6-1.2,1c-0.3,0.4-0.5,0.8-0.6,1.2c-0.2,0.9,0,1.7,0.7,2.5
			c0.6,0.7,1.3,1.1,2.1,1.3c0.1,0,0.4,0.1,0.6,0.1l0.8-3.1c-0.3-0.1-0.5-0.2-0.7-0.4c-0.2-0.3-0.3-0.8-0.1-1.5
			C162.6,22.7,163.1,22.1,164,21.8z"/>
	</g>
	<g class="st1">
		<path class="st4" d="M164.8,19.2l6.8-1.2l-1.9,8.2c0,0.5-0.2,1.1-0.3,1.8c-0.1,0.6-0.3,1-0.4,1.2l-2.1,9l-6.7-1.3l0.2-0.9
			c-1.2,0.2-2.3,0.1-3.4-0.2c-0.8-0.2-1.6-0.5-2.3-1c-0.7-0.4-1.2-0.9-1.7-1.5c-0.7-0.9-1.1-2.1-1.3-3.4c-0.2-1.4-0.1-2.7,0.2-4.1
			c0.6-2.4,1.7-4.1,3.5-5.2c1.5-0.9,2.9-1.6,4.3-1.9s2.8-0.3,4.1,0c0.4,0.1,0.6,0.2,0.8,0.2L164.8,19.2z M164,21.8
			c-0.6-0.1-1.1,0-1.7,0.1c-0.6,0.1-1.1,0.4-1.6,0.6c-0.5,0.3-0.9,0.6-1.2,1c-0.3,0.4-0.5,0.8-0.6,1.2c-0.2,0.9,0,1.7,0.7,2.5
			c0.6,0.7,1.3,1.1,2.1,1.3c0.1,0,0.4,0.1,0.6,0.1l0.8-3.1c-0.3-0.1-0.5-0.2-0.7-0.4c-0.2-0.3-0.3-0.8-0.1-1.5
			C162.6,22.7,163.1,22.1,164,21.8z"/>
	</g>
	<g class="st1">
		<path class="st3" d="M181.5,42.7l-0.6,1.6c-0.6,1.8-1.3,3.5-2,5c-0.7,1.5-1.5,2.5-2.2,3c-1.1,0.7-2.3,1.1-3.7,1.4
			c-1.4,0.3-2.8,0.1-4.3-0.4c-1-0.3-1.9-0.9-3-1.7c-1-0.8-1.7-1.6-2.1-2.4c-0.4-0.8-0.6-1.6-0.7-2.4c0-0.8,0.1-1.6,0.4-2.4
			c0.4-1,0.8-1.9,1.5-2.7c0.6-0.8,1.1-1.3,1.4-1.6l3.6,4.7c-0.1,0.2-0.2,0.4-0.2,0.5c-0.2,0.6-0.2,1.1,0.1,1.6
			c0.3,0.5,0.7,0.8,1.3,1c0.5,0.2,1,0.2,1.5,0c0.5-0.2,0.9-0.5,1.2-1c0.3-0.6,0.7-1.4,1-2.4c0.4-1.2,0.8-2.5,1.1-3.9
			c-1.4,0.2-2.7,0-4-0.4c-0.8-0.3-1.5-0.7-2.2-1.2c-0.6-0.5-1.1-1.1-1.5-1.7c-0.6-1-0.9-2.2-1-3.5c-0.1-1.4,0.1-2.7,0.6-4
			c0.8-2.3,2.1-3.9,3.9-4.9c3.1-1.6,6-2,8.5-1.1c0.8,0.3,1.5,0.7,2.1,1.1l5.1-0.6L181.5,42.7z M178.9,33.4l1-3.1
			c-0.6-0.2-1-0.4-1.1-0.7c-0.1-0.3-0.2-0.6,0-0.9c0.1-0.4,0.4-0.8,0.6-1.1c0.3-0.4,0.5-0.6,0.7-0.8c-0.8-0.1-1.5-0.1-2.2,0.1
			c-0.7,0.2-1.4,0.5-1.9,1c-0.5,0.4-0.9,0.9-1.1,1.5c-0.3,0.9-0.1,1.7,0.5,2.5c0.4,0.5,1,0.9,1.8,1.2
			C177.7,33.3,178.3,33.4,178.9,33.4z"/>
	</g>
	<g class="st1">
		<path class="st4" d="M181.5,42.7l-0.6,1.6c-0.6,1.8-1.3,3.5-2,5c-0.7,1.5-1.5,2.5-2.2,3c-1.1,0.7-2.3,1.1-3.7,1.4
			c-1.4,0.3-2.8,0.1-4.3-0.4c-1-0.3-1.9-0.9-3-1.7c-1-0.8-1.7-1.6-2.1-2.4c-0.4-0.8-0.6-1.6-0.7-2.4c0-0.8,0.1-1.6,0.4-2.4
			c0.4-1,0.8-1.9,1.5-2.7c0.6-0.8,1.1-1.3,1.4-1.6l3.6,4.7c-0.1,0.2-0.2,0.4-0.2,0.5c-0.2,0.6-0.2,1.1,0.1,1.6
			c0.3,0.5,0.7,0.8,1.3,1c0.5,0.2,1,0.2,1.5,0c0.5-0.2,0.9-0.5,1.2-1c0.3-0.6,0.7-1.4,1-2.4c0.4-1.2,0.8-2.5,1.1-3.9
			c-1.4,0.2-2.7,0-4-0.4c-0.8-0.3-1.5-0.7-2.2-1.2c-0.6-0.5-1.1-1.1-1.5-1.7c-0.6-1-0.9-2.2-1-3.5c-0.1-1.4,0.1-2.7,0.6-4
			c0.8-2.3,2.1-3.9,3.9-4.9c3.1-1.6,6-2,8.5-1.1c0.8,0.3,1.5,0.7,2.1,1.1l5.1-0.6L181.5,42.7z M178.9,33.4l1-3.1
			c-0.6-0.2-1-0.4-1.1-0.7c-0.1-0.3-0.2-0.6,0-0.9c0.1-0.4,0.4-0.8,0.6-1.1c0.3-0.4,0.5-0.6,0.7-0.8c-0.8-0.1-1.5-0.1-2.2,0.1
			c-0.7,0.2-1.4,0.5-1.9,1c-0.5,0.4-0.9,0.9-1.1,1.5c-0.3,0.9-0.1,1.7,0.5,2.5c0.4,0.5,1,0.9,1.8,1.2
			C177.7,33.3,178.3,33.4,178.9,33.4z"/>
	</g>
	<g class="st1">
		<path class="st3" d="M196.5,40.8l1.5,5.5c-0.6,0.6-1.6,1.1-2.9,1.2c-1.3,0.2-2.7,0.1-4.2-0.1c-1.5-0.3-3-0.7-4.4-1.3
			c-1.2-0.6-2.2-1.2-3-2c-0.8-0.8-1.3-1.6-1.5-2.5c-0.4-1.5-0.2-3.2,0.6-4.9c0.6-1.4,1.5-2.6,2.6-3.7c1.1-1.1,2.1-1.8,2.9-2.1
			c1-0.3,1.9-0.5,2.9-0.6c1-0.1,1.9,0,2.9,0.2c0.9,0.2,1.9,0.5,2.7,0.9c1.2,0.5,2.2,1.2,3.1,2.1c0.9,0.9,1.6,1.8,2,2.9L190,42
			c0.7,0.3,1.4,0.5,2.1,0.5c0.7,0,1.5-0.1,2.2-0.4C195.1,41.7,195.8,41.3,196.5,40.8z M194.2,35.9c-0.3-0.4-0.8-0.8-1.2-1
			c-0.5-0.2-1-0.3-1.6-0.4c-0.6,0-1,0.1-1.3,0.3c-0.9,0.5-1.6,1.1-2,2c-0.1,0.3-0.3,0.6-0.3,1c-0.1,0.3-0.1,0.8-0.2,1.4L194.2,35.9z
			"/>
	</g>
	<g class="st1">
		<path class="st4" d="M196.5,40.8l1.5,5.5c-0.6,0.6-1.6,1.1-2.9,1.2c-1.3,0.2-2.7,0.1-4.2-0.1c-1.5-0.3-3-0.7-4.4-1.3
			c-1.2-0.6-2.2-1.2-3-2c-0.8-0.8-1.3-1.6-1.5-2.5c-0.4-1.5-0.2-3.2,0.6-4.9c0.6-1.4,1.5-2.6,2.6-3.7c1.1-1.1,2.1-1.8,2.9-2.1
			c1-0.3,1.9-0.5,2.9-0.6c1-0.1,1.9,0,2.9,0.2c0.9,0.2,1.9,0.5,2.7,0.9c1.2,0.5,2.2,1.2,3.1,2.1c0.9,0.9,1.6,1.8,2,2.9L190,42
			c0.7,0.3,1.4,0.5,2.1,0.5c0.7,0,1.5-0.1,2.2-0.4C195.1,41.7,195.8,41.3,196.5,40.8z M194.2,35.9c-0.3-0.4-0.8-0.8-1.2-1
			c-0.5-0.2-1-0.3-1.6-0.4c-0.6,0-1,0.1-1.3,0.3c-0.9,0.5-1.6,1.1-2,2c-0.1,0.3-0.3,0.6-0.3,1c-0.1,0.3-0.1,0.8-0.2,1.4L194.2,35.9z
			"/>
	</g>
	<g class="st1">
		<path class="st3" d="M217.3,45.3l-6.4,0.3c0.1-0.7,0.1-1.4,0-2c-0.1-0.6-0.4-1.1-0.8-1.3c-0.6-0.3-1.3-0.2-2.2,0.5
			c-0.9,0.7-2,2.1-3.2,4.2c-0.9,1.5-1.9,3.4-2.9,5.5l-6.8-3c1.2-2.9,2.4-5.4,3.7-7.5c0.2-0.3,0.5-0.8,0.9-1.4l4.2-7.8l5.5,2.4
			l0.2,1.3c0.7,0.1,1.4,0.3,2,0.5c0.6,0.2,1.2,0.3,1.7,0.5c0.5,0.2,1,0.4,1.4,0.6c0.9,0.5,1.5,1.1,1.9,1.9c0.6,0.9,0.9,1.8,1.1,2.6
			C217.7,43.4,217.6,44.3,217.3,45.3z"/>
	</g>
	<g class="st1">
		<path class="st4" d="M217.3,45.3l-6.4,0.3c0.1-0.7,0.1-1.4,0-2c-0.1-0.6-0.4-1.1-0.8-1.3c-0.6-0.3-1.3-0.2-2.2,0.5
			c-0.9,0.7-2,2.1-3.2,4.2c-0.9,1.5-1.9,3.4-2.9,5.5l-6.8-3c1.2-2.9,2.4-5.4,3.7-7.5c0.2-0.3,0.5-0.8,0.9-1.4l4.2-7.8l5.5,2.4
			l0.2,1.3c0.7,0.1,1.4,0.3,2,0.5c0.6,0.2,1.2,0.3,1.7,0.5c0.5,0.2,1,0.4,1.4,0.6c0.9,0.5,1.5,1.1,1.9,1.9c0.6,0.9,0.9,1.8,1.1,2.6
			C217.7,43.4,217.6,44.3,217.3,45.3z"/>
	</g>
</g>
</svg>
