<?xml version="1.0" encoding="utf-8"?>
<!-- Generator: Adobe Illustrator 26.3.1, SVG Export Plug-In . SVG Version: 6.00 Build 0)  -->
<svg version="1.1" xmlns="http://www.w3.org/2000/svg" xmlns:xlink="http://www.w3.org/1999/xlink" x="0px" y="0px"
	 viewBox="0 0 1920 1080" style="enable-background:new 0 0 1920 1080;" xml:space="preserve">
<style type="text/css">
	.st0{fill:url(#SVGID_1_);}
	.st1{opacity:0.1;}
	.st2{fill:#EEEEEE;}
	.st3{opacity:0.18;fill:#EEEEEE;}
</style>
<g id="Calque_1">
	<g>
		<linearGradient id="SVGID_1_" gradientUnits="userSpaceOnUse" x1="1433.8269" y1="-280.6922" x2="486.1731" y2="1360.6921">
			<stop  offset="0" style="stop-color:#434343"/>
			<stop  offset="0.2617" style="stop-color:#242424"/>
			<stop  offset="0.5383" style="stop-color:#0A0A0A"/>
			<stop  offset="0.7025" style="stop-color:#000000"/>
		</linearGradient>
		<rect class="st0" width="1920" height="1080"/>
	</g>
</g>
<g id="Calque_2">
	<g class="st1">
		<circle class="st2" cx="395.8" cy="296.1" r="58.4"/>
		<path class="st2" d="M362.4,205c42.5-15.6,88.8,0.2,113.1,36l92.6-34c-43.5-85.7-145.8-127.4-239.2-93.2s-143.7,132-122.3,225.7
			l92.6-34C294.7,262.5,319.8,220.6,362.4,205z"/>
		<path class="st2" d="M429.9,387c-42.5,15.6-88.8-0.2-113.9-35.8l-92.6,34c44.2,85.4,146.6,127.2,239.2,93.2s143.7-132,122.3-225.7
			L493,286.3C497.6,329.4,472.5,371.4,429.9,387z"/>
	</g>
	<g class="st1">
		<circle class="st2" cx="386.5" cy="755" r="32.8"/>
		<path class="st2" d="M440.2,763.9c-4.2,25.1-24.7,43.3-48.9,45.3l-9,54.7c53.9,2.5,102.6-36,111.7-91.1
			c9.1-55.1-24.7-106.7-76.4-122.2l-9,54.7C430.8,714.9,444.4,738.8,440.2,763.9z"/>
		<path class="st2" d="M332.6,746.5c4.2-25.1,24.7-43.3,49-45.8l9-54.7c-54-2-102.7,36.4-111.7,91.1c-9,54.7,24.7,106.7,76.4,122.2
			l9-54.2C342,795.5,328.5,771.6,332.6,746.5z"/>
	</g>
	<g class="st1">
		<circle class="st2" cx="738.5" cy="551" r="14.9"/>
		<path class="st2" d="M720,534.5c7.7-8.6,20-10.6,29.8-5.5l16.8-18.8c-20.1-14.1-48.1-11.2-65,7.7c-16.9,18.9-16.5,46.9-0.4,65.5
			l16.8-18.8C711.7,555.5,712.3,543.1,720,534.5z"/>
		<path class="st2" d="M757,567.3c-7.7,8.6-20,10.6-29.9,5.6l-16.8,18.8c20.2,13.9,48.2,11,65-7.7c16.8-18.8,16.5-46.9,0.4-65.5
			l-16.6,18.6C765.4,546.3,764.7,558.7,757,567.3z"/>
	</g>
	<g class="st1">
		<circle class="st2" cx="1370.5" cy="813" r="18.3"/>
		<path class="st2" d="M1387.7,788c11.6,8,16,22.7,11.2,35.4l25.4,17.5c14-26.5,6.3-60.2-19.3-77.8c-25.6-17.7-59.6-12.9-79.6,9.5
			l25.4,17.5C1360.8,781.2,1376.1,780,1387.7,788z"/>
		<path class="st2" d="M1353.4,838.1c-11.6-8-16-22.7-11.4-35.5l-25.4-17.5c-13.8,26.7-6.1,60.3,19.3,77.8
			c25.4,17.5,59.6,12.9,79.6-9.5l-25.2-17.4C1380.3,845,1365.1,846.1,1353.4,838.1z"/>
	</g>
	<g class="st1">
		<circle class="st2" cx="1121.5" cy="206" r="18.3"/>
		<path class="st2" d="M1111,177.5c13.3-4.9,27.7,0.1,35.3,11.3l28.9-10.6c-13.6-26.8-45.5-39.8-74.7-29.1
			c-29.2,10.7-44.9,41.2-38.2,70.5l28.9-10.6C1089.9,195.5,1097.7,182.4,1111,177.5z"/>
		<path class="st2" d="M1132.1,234.4c-13.3,4.9-27.7-0.1-35.6-11.2l-28.9,10.6c13.8,26.7,45.8,39.7,74.7,29.1
			c28.9-10.6,44.9-41.2,38.2-70.5l-28.7,10.5C1153.3,216.4,1145.4,229.5,1132.1,234.4z"/>
	</g>
	<g class="st1">
		<circle class="st2" cx="1029.5" cy="509" r="32.1"/>
		<path class="st2" d="M1011.1,459c23.3-8.6,48.7,0.1,62.1,19.8l50.8-18.6c-23.9-47-80-69.9-131.3-51.1
			c-51.3,18.8-78.9,72.4-67.1,123.9l50.8-18.6C974,490.6,987.8,467.5,1011.1,459z"/>
		<path class="st2" d="M1048.2,558.8c-23.3,8.6-48.7-0.1-62.5-19.6l-50.8,18.6c24.3,46.9,80.4,69.8,131.3,51.1
			c50.8-18.6,78.9-72.4,67.1-123.9l-50.4,18.5C1085.3,527.3,1071.5,550.3,1048.2,558.8z"/>
	</g>
	<g class="st1">
		<circle class="st2" cx="1513.2" cy="431.7" r="43.2"/>
		<path class="st2" d="M1543.4,366.5c30.4,14.1,46.4,46.6,40.3,78.1l66.3,30.7c22.1-67.6-9.6-143-76.4-173.9
			c-66.8-31-144.3-6.2-182.1,54.2l66.3,30.7C1477.9,361.3,1513,352.4,1543.4,366.5z"/>
		<path class="st2" d="M1483.5,497.1c-30.4-14.1-46.4-46.6-40.9-78.3l-66.3-30.7c-21.5,67.9,10.2,143.2,76.4,173.9
			c66.3,30.7,144.3,6.2,182.1-54.2l-65.7-30.5C1549,502.4,1513.9,511.2,1483.5,497.1z"/>
	</g>
	<g class="st1">
		<circle class="st2" cx="925.7" cy="824.7" r="34.8"/>
		<path class="st2" d="M956.1,775.5c22.9,14.2,32.5,41.7,24.7,66.3l50,30.9c24.2-51.9,6.1-115.1-44.2-146.3
			c-50.4-31.2-114.6-18.8-150.7,25.7l50,30.9C904.3,765,933.2,761.3,956.1,775.5z"/>
		<path class="st2" d="M895.7,874c-22.9-14.2-32.5-41.7-25.1-66.5l-50-30.9c-23.8,52.1-5.7,115.4,44.2,146.3
			c50,30.9,114.6,18.8,150.7-25.7L966,866.6C947.5,884.6,918.6,888.2,895.7,874z"/>
	</g>
	<path class="st3" d="M0,975l0,65.5c5.2,9,12.7,17,22.2,22.8c30.8,19,71.2,9.5,90.2-21.2c19-30.8,9.5-71.2-21.2-90.2
		c-30.8-19-71.2-9.5-90.2,21.2c-0.3,0.5-0.7,1.1-1,1.6"/>
	<path class="st3" d="M225.3,1080l-64.8-40.1c14.8-46.3-3.3-98-46.5-124.8c-36.2-22.4-80.2-21.2-114-0.3l0-117.2
		c55.9-15.2,117.8-8.1,171.3,25c89.1,55.1,124.5,163.5,90.8,257.4L225.3,1080z"/>
	<g class="st1">
		<circle class="st2" cx="1872" cy="1017.5" r="36.4"/>
		<path class="st2" d="M1920,977.8l-1.8,0.9c-17.2-20.8-46.8-27.9-72.2-15.7c-25.4,12.1-38.5,39.6-33.2,66l-55.4,26.4
			c-18.8-56.8,6.7-120.3,62.6-147c32.9-15.7,69.2-15.3,100-1.9L1920,977.8z"/>
		<path class="st2" d="M1777,1080l48.8-23.8c17.6,20.6,47.2,27.7,72.6,15.5c8.7-4.2,16-10.1,21.5-17.2l0,25.4H1777z"/>
	</g>
	<path class="st2" d="M1978,1050"/>
</g>
</svg>
